<?xml version="1.0" ?><svg height="24" id="svg8" version="1.1" viewBox="0 0 24 24" width="24" xmlns="http://www.w3.org/2000/svg" xmlns:cc="http://creativecommons.org/ns#" xmlns:dc="http://purl.org/dc/elements/1.1/" xmlns:rdf="http://www.w3.org/1999/02/22-rdf-syntax-ns#" xmlns:svg="http://www.w3.org/2000/svg"><defs id="defs2"><rect height="7.0346723" id="rect2504" width="7.9207187" x="-1.1008456" y="289.81766"/></defs><g id="g2206" transform="translate(-0.066406)"><path fill="#ee7e2b" d="m -72.986328,81.382812 v 1.5 c -1.837891,0 -3.675781,0 -5.513672,0 v 19.734378 h 15 v -2.26758 c 0.167079,0.0151 0.329005,0.0469 0.5,0.0469 3.104706,0 5.632815,-2.528102 5.632812,-5.632808 10e-7,-3.104707 -2.528105,-5.63086 -5.632812,-5.63086 -0.170566,0 -0.333281,0.02802 -0.5,0.04297 v -6.292969 c -1.830078,0 -3.660156,0 -5.490234,0 v -1.5 z m 1,1 h 1.996094 v 1.5 H -68 v 1 h -6 v -1 h 2.013672 z m -5.513672,1.5 h 2.5 v 2 h 8 v -2 h 2.5 v 5.472657 c -1.891187,0.527127 -3.39012,2.003573 -3.919922,3.894531 h -3.447266 v 1 h 3.259766 c -0.01546,0.169613 -0.02539,0.340102 -0.02539,0.513672 0,1.204638 0.384044,2.319294 1.03125,3.236328 h -4.265626 v 1 h 5.167969 c 0.62502,0.546512 1.379018,0.937728 2.199219,1.16797 v 1.44922 h -13 z m 14.5,6.25 c 2.564267,0 4.632813,2.066593 4.632812,4.63086 0,2.564266 -2.068546,4.632812 -4.632812,4.632812 -2.564266,0 -4.632812,-2.068546 -4.632812,-4.632812 -10e-7,-2.564267 2.068545,-4.630857 4.632812,-4.63086 z m -0.5,1.5 v 4 h 4 v -1 h -3 v -3 z" id="path2515" style="color:#ee7e2b;font-style:normal;font-variant:normal;font-weight:normal;font-stretch:normal;font-size:medium;line-height:normal;font-family:sans-serif;font-variant-ligatures:normal;font-variant-position:normal;font-variant-caps:normal;font-variant-numeric:normal;font-variant-alternates:normal;font-variant-east-asian:normal;font-feature-settings:normal;font-variation-settings:normal;text-indent:0;text-align:start;text-decoration:none;text-decoration-line:none;text-decoration-style:solid;text-decoration-color:#ee7e2b;letter-spacing:normal;word-spacing:normal;text-transform:none;writing-mode:lr-tb;direction:ltr;text-orientation:mixed;dominant-baseline:auto;baseline-shift:baseline;text-anchor:start;white-space:normal;shape-padding:0;shape-margin:0;inline-size:0;clip-rule:nonzero;display:inline;overflow:visible;visibility:visible;opacity:1;isolation:auto;mix-blend-mode:normal;color-interpolation:sRGB;color-interpolation-filters:linearRGB;solid-color:#ee7e2b;solid-opacity:1;vector-effect:none;fill:#ee7e2b;fill-opacity:1;fill-rule:nonzero;stroke:none;stroke-width:1;stroke-linecap:butt;stroke-linejoin:miter;stroke-miterlimit:4;stroke-dasharray:none;stroke-dashoffset:0;stroke-opacity:1;paint-order:stroke fill markers;color-rendering:auto;image-rendering:auto;shape-rendering:auto;text-rendering:auto;enable-background:accumulate;stop-color:#ee7e2b;stop-opacity:1" transform="translate(80,-80)"/><path fill="#ee7e2b" d="m 5.5,2.8828125 v 1 h 2.234375 v -1 z" id="path2527" style="color:#ee7e2b;font-style:normal;font-variant:normal;font-weight:normal;font-stretch:normal;font-size:medium;line-height:normal;font-family:sans-serif;font-variant-ligatures:normal;font-variant-position:normal;font-variant-caps:normal;font-variant-numeric:normal;font-variant-alternates:normal;font-variant-east-asian:normal;font-feature-settings:normal;font-variation-settings:normal;text-indent:0;text-align:start;text-decoration:none;text-decoration-line:none;text-decoration-style:solid;text-decoration-color:#ee7e2b;letter-spacing:normal;word-spacing:normal;text-transform:none;writing-mode:lr-tb;direction:ltr;text-orientation:mixed;dominant-baseline:auto;baseline-shift:baseline;text-anchor:start;white-space:normal;shape-padding:0;shape-margin:0;inline-size:0;clip-rule:nonzero;display:inline;overflow:visible;visibility:visible;opacity:1;isolation:auto;mix-blend-mode:normal;color-interpolation:sRGB;color-interpolation-filters:linearRGB;solid-color:#ee7e2b;solid-opacity:1;vector-effect:none;fill:#ee7e2b;fill-opacity:1;fill-rule:nonzero;stroke:none;stroke-width:1;stroke-linecap:butt;stroke-linejoin:miter;stroke-miterlimit:4;stroke-dasharray:none;stroke-dashoffset:0;stroke-opacity:1;paint-order:stroke fill markers;color-rendering:auto;image-rendering:auto;shape-rendering:auto;text-rendering:auto;enable-background:accumulate;stop-color:#ee7e2b;stop-opacity:1"/><path fill="#ee7e2b" d="m 4,12.25 c 0,1 0,2 0,3 1.0442708,0 2.0885417,0 3.1328125,0 0,-1 0,-2 0,-3 -1.0442708,0 -2.0885417,0 -3.1328125,0 z m 1,1 c 0.3776042,0 0.7552083,0 1.1328125,0 0,0.333333 0,0.666667 0,1 -0.3776042,0 -0.7552083,0 -1.1328125,0 0,-0.333333 0,-0.666667 0,-1 z" id="path2499" style="color:#ee7e2b;font-style:normal;font-variant:normal;font-weight:normal;font-stretch:normal;font-size:medium;line-height:normal;font-family:sans-serif;font-variant-ligatures:normal;font-variant-position:normal;font-variant-caps:normal;font-variant-numeric:normal;font-variant-alternates:normal;font-variant-east-asian:normal;font-feature-settings:normal;font-variation-settings:normal;text-indent:0;text-align:start;text-decoration:none;text-decoration-line:none;text-decoration-style:solid;text-decoration-color:#ee7e2b;letter-spacing:normal;word-spacing:normal;text-transform:none;writing-mode:lr-tb;direction:ltr;text-orientation:mixed;dominant-baseline:auto;baseline-shift:baseline;text-anchor:start;white-space:normal;shape-padding:0;shape-margin:0;inline-size:0;clip-rule:nonzero;display:inline;overflow:visible;visibility:visible;opacity:1;isolation:auto;mix-blend-mode:normal;color-interpolation:sRGB;color-interpolation-filters:linearRGB;solid-color:#ee7e2b;solid-opacity:1;vector-effect:none;fill:#ee7e2b;fill-opacity:1;fill-rule:nonzero;stroke:none;stroke-width:1;stroke-linecap:square;stroke-linejoin:miter;stroke-miterlimit:4;stroke-dasharray:none;stroke-dashoffset:0;stroke-opacity:1;paint-order:stroke fill markers;color-rendering:auto;image-rendering:auto;shape-rendering:auto;text-rendering:auto;enable-background:accumulate;stop-color:#ee7e2b;stop-opacity:1"/><path fill="#ee7e2b" d="m 4,7.5 c 0,1 0,2 0,3 1.0442708,0 2.0885417,0 3.1328125,0 0,-1 0,-2 0,-3 C 6.0885417,7.5 5.0442708,7.5 4,7.5 Z m 1,1 c 0.3776042,0 0.7552083,0 1.1328125,0 0,0.3333333 0,0.6666667 0,1 C 5.7552083,9.5 5.3776042,9.5 5,9.5 5,9.1666667 5,8.8333333 5,8.5 Z" id="path2503" style="color:#ee7e2b;font-style:normal;font-variant:normal;font-weight:normal;font-stretch:normal;font-size:medium;line-height:normal;font-family:sans-serif;font-variant-ligatures:normal;font-variant-position:normal;font-variant-caps:normal;font-variant-numeric:normal;font-variant-alternates:normal;font-variant-east-asian:normal;font-feature-settings:normal;font-variation-settings:normal;text-indent:0;text-align:start;text-decoration:none;text-decoration-line:none;text-decoration-style:solid;text-decoration-color:#ee7e2b;letter-spacing:normal;word-spacing:normal;text-transform:none;writing-mode:lr-tb;direction:ltr;text-orientation:mixed;dominant-baseline:auto;baseline-shift:baseline;text-anchor:start;white-space:normal;shape-padding:0;shape-margin:0;inline-size:0;clip-rule:nonzero;display:inline;overflow:visible;visibility:visible;opacity:1;isolation:auto;mix-blend-mode:normal;color-interpolation:sRGB;color-interpolation-filters:linearRGB;solid-color:#ee7e2b;solid-opacity:1;vector-effect:none;fill:#ee7e2b;fill-opacity:1;fill-rule:nonzero;stroke:none;stroke-width:1;stroke-linecap:square;stroke-linejoin:miter;stroke-miterlimit:4;stroke-dasharray:none;stroke-dashoffset:0;stroke-opacity:1;paint-order:stroke fill markers;color-rendering:auto;image-rendering:auto;shape-rendering:auto;text-rendering:auto;enable-background:accumulate;stop-color:#ee7e2b;stop-opacity:1"/><path fill="#ee7e2b" d="m 4,17 c 0,1 0,2 0,3 1.0442708,0 2.0885417,0 3.1328125,0 0,-1 0,-2 0,-3 C 6.0885417,17 5.0442708,17 4,17 Z m 1,1 c 0.3776042,0 0.7552083,0 1.1328125,0 0,0.333333 0,0.666667 0,1 C 5.7552083,19 5.3776042,19 5,19 5,18.666667 5,18.333333 5,18 Z" id="path2507" style="color:#ee7e2b;font-style:normal;font-variant:normal;font-weight:normal;font-stretch:normal;font-size:medium;line-height:normal;font-family:sans-serif;font-variant-ligatures:normal;font-variant-position:normal;font-variant-caps:normal;font-variant-numeric:normal;font-variant-alternates:normal;font-variant-east-asian:normal;font-feature-settings:normal;font-variation-settings:normal;text-indent:0;text-align:start;text-decoration:none;text-decoration-line:none;text-decoration-style:solid;text-decoration-color:#ee7e2b;letter-spacing:normal;word-spacing:normal;text-transform:none;writing-mode:lr-tb;direction:ltr;text-orientation:mixed;dominant-baseline:auto;baseline-shift:baseline;text-anchor:start;white-space:normal;shape-padding:0;shape-margin:0;inline-size:0;clip-rule:nonzero;display:inline;overflow:visible;visibility:visible;opacity:1;isolation:auto;mix-blend-mode:normal;color-interpolation:sRGB;color-interpolation-filters:linearRGB;solid-color:#ee7e2b;solid-opacity:1;vector-effect:none;fill:#ee7e2b;fill-opacity:1;fill-rule:nonzero;stroke:none;stroke-width:1;stroke-linecap:square;stroke-linejoin:miter;stroke-miterlimit:4;stroke-dasharray:none;stroke-dashoffset:0;stroke-opacity:1;paint-order:stroke fill markers;color-rendering:auto;image-rendering:auto;shape-rendering:auto;text-rendering:auto;enable-background:accumulate;stop-color:#ee7e2b;stop-opacity:1"/><path fill="#ee7e2b" d="m 8.1328125,8.5 c 0,0.3333333 0,0.6666667 0,1 1.9999995,0 3.9999995,0 5.9999995,0 0,-0.3333333 0,-0.6666667 0,-1 -2,0 -4,0 -5.9999995,0 z" id="path2535" style="color:#ee7e2b;font-style:normal;font-variant:normal;font-weight:normal;font-stretch:normal;font-size:medium;line-height:normal;font-family:sans-serif;font-variant-ligatures:normal;font-variant-position:normal;font-variant-caps:normal;font-variant-numeric:normal;font-variant-alternates:normal;font-variant-east-asian:normal;font-feature-settings:normal;font-variation-settings:normal;text-indent:0;text-align:start;text-decoration:none;text-decoration-line:none;text-decoration-style:solid;text-decoration-color:#ee7e2b;letter-spacing:normal;word-spacing:normal;text-transform:none;writing-mode:lr-tb;direction:ltr;text-orientation:mixed;dominant-baseline:auto;baseline-shift:baseline;text-anchor:start;white-space:normal;shape-padding:0;shape-margin:0;inline-size:0;clip-rule:nonzero;display:inline;overflow:visible;visibility:visible;opacity:1;isolation:auto;mix-blend-mode:normal;color-interpolation:sRGB;color-interpolation-filters:linearRGB;solid-color:#ee7e2b;solid-opacity:1;vector-effect:none;fill:#ee7e2b;fill-opacity:1;fill-rule:nonzero;stroke:none;stroke-width:1px;stroke-linecap:square;stroke-linejoin:miter;stroke-miterlimit:4;stroke-dasharray:none;stroke-dashoffset:0;stroke-opacity:1;color-rendering:auto;image-rendering:auto;shape-rendering:auto;text-rendering:auto;enable-background:accumulate;stop-color:#ee7e2b;stop-opacity:1"/></g></svg>